<?xml version="1.0" encoding="UTF-8" standalone="no"?>
<!DOCTYPE svg PUBLIC "-//W3C//DTD SVG 1.1//EN" "http://www.w3.org/Graphics/SVG/1.1/DTD/svg11.dtd">
<svg width="100%" height="100%" viewBox="0 0 24 24" version="1.1" xmlns="http://www.w3.org/2000/svg" xmlns:xlink="http://www.w3.org/1999/xlink" xml:space="preserve" xmlns:serif="http://www.serif.com/" style="fill-rule:evenodd;clip-rule:evenodd;stroke-linejoin:round;stroke-miterlimit:2;">
    <g transform="matrix(0.03375,0,0,0.03375,12,12)">
        <g transform="matrix(1,0,0,1,-400,-400)">
            <path d="M725,262.499L725,387.501C725,401.215 713.715,412.5 700.001,412.5C700,412.5 700,412.5 700,412.5C647.779,412.615 596.302,400.059 549.998,375.914L550,487.5C549.981,617.775 442.775,724.965 312.5,724.965C182.211,724.965 75,617.753 75,487.465C75,372.919 157.867,273.886 270.618,253.687C272.065,253.429 273.532,253.299 275.002,253.299C288.715,253.299 300,264.584 300,278.298C300,278.298 300,278.299 300,278.299L299.998,408.421C299.999,418.056 294.429,426.868 285.727,431.003C263.936,441.328 249.983,463.378 249.983,487.492C249.983,521.783 278.2,550 312.492,550C346.779,550 374.995,521.788 375,487.5L375,87.5C375,87.5 375,87.5 375,87.499C375,73.785 386.285,62.5 399.999,62.5L525.001,62.5C538.715,62.5 550,73.785 550,87.499C550,87.5 550,87.5 550,87.5C550.093,169.752 617.748,237.407 700,237.5C700,237.5 700,237.5 700.001,237.5C713.715,237.5 725,248.785 725,262.499Z" style="fill-rule:nonzero;"/>
        </g>
    </g>
</svg>
